PathFileType	4	(X/Y/Z)	RBDS021static.trc
DataRate	CameraRate	NumFrames	NumMarkers	Units	OrigDataRate	OrigDataStartFrame	OrigNumFrames
150.000000	150.000000	4	48	mm	150.000000	131	150
Frame#	Time	L.Ankle			L.Ankle.Medial			L.ASIS			L.GTR			L.Heel.Bottom			L.Heel.Lateral			L.Heel.Top			L.HF			L.Iliac.Crest			L.Knee			L.Knee.Medial			L.MT1			L.MT2			L.MT5			L.PSIS			L.Shank.Bottom.Lateral			L.Shank.Bottom.Medial			L.Shank.Top.Lateral			L.Shank.Top.Medial			L.Thigh.Bottom.Lateral			L.Thigh.Bottom.Medial			L.Thigh.Top.Lateral			L.Thigh.Top.Medial			L.TT			R.Ankle			R.Ankle.Medial			R.ASIS			R.GTR			R.Heel.Bottom			R.Heel.Lateral			R.Heel.Top			R.HF			R.Iliac.Crest			R.Knee			R.Knee.Medial			R.MT1			R.MT2			R.MT5			R.PSIS			R.Shank.Bottom.Lateral			R.Shank.Bottom.Medial			R.Shank.Top.Lateral			R.Shank.Top.Medial			R.Thigh.Bottom.Lateral			R.Thigh.Bottom.Medial			R.Thigh.Top.Lateral			R.Thigh.Top.Medial			R.TT			
		X1	Y1	Z1	X2	Y2	Z2	X3	Y3	Z3	X4	Y4	Z4	X5	Y5	Z5	X6	Y6	Z6	X7	Y7	Z7	X8	Y8	Z8	X9	Y9	Z9	X10	Y10	Z10	X11	Y11	Z11	X12	Y12	Z12	X13	Y13	Z13	X14	Y14	Z14	X15	Y15	Z15	X16	Y16	Z16	X17	Y17	Z17	X18	Y18	Z18	X19	Y19	Z19	X20	Y20	Z20	X21	Y21	Z21	X22	Y22	Z22	X23	Y23	Z23	X24	Y24	Z24	X25	Y25	Z25	X26	Y26	Z26	X27	Y27	Z27	X28	Y28	Z28	X29	Y29	Z29	X30	Y30	Z30	X31	Y31	Z31	X32	Y32	Z32	X33	Y33	Z33	X34	Y34	Z34	X35	Y35	Z35	X36	Y36	Z36	X37	Y37	Z37	X38	Y38	Z38	X39	Y39	Z39	X40	Y40	Z40	X41	Y41	Z41	X42	Y42	Z42	X43	Y43	Z43	X44	Y44	Z44	X45	Y45	Z45	X46	Y46	Z46	X47	Y47	Z47	X48	Y48	Z48	

132	0.8733333333333334	713.2981567382813	110.8891220092773	1037.82080078125	729.8150634765625	122.4404144287109	1118.948120117188	864.968017578125	1002.212097167969	1113.351684570313	789.0811157226563	920.4139404296875	1039.109497070313	635.9530029296875	40.12240219116211	1086.014770507813	665.5039672851563	61.44903945922852	1041.340454101563	645.6574096679688	86.83618927001953	1086.010498046875	733.6407470703125	455.3254699707031	1020.455932617188	777.3194580078125	1061.103637695313	1063.009399414063	753.6863403320313	533.1246948242188	1028.306640625	726.1517944335938	504.0397338867188	1155.792358398438	851.7725830078125	57.24887847900391	1126.7568359375	863.934814453125	62.55251693725586	1082.4423828125	821.494140625	47.74098968505859	1012.859680175781	681.1307373046875	1023.035583496094	1190.752075195313	710.8516845703125	183.2608642578125	1028.860961914063	668.69970703125	186.7380065917969	1064.76611328125	704.7279663085938	262.5321655273438	1015.208923339844	663.5416870117188	266.3173522949219	1049.718994140625	762.0457153320313	657.5722045898438	1022.207214355469	699.6741943359375	668.4288330078125	1055.610595703125	774.4220581054688	766.8016357421875	1015.163146972656	714.8350219726563	777.4580078125	1047.507446289063	788.733642578125	437.9460754394531	1074.41162109375	707.162353515625	103.1818084716797	1422.386108398438	731.7185668945313	124.4024810791016	1341.393798828125	866.9681396484375	1004.206604003906	1338.18603515625	794.6805419921875	919.1370849609375	1410.196655273438	635.0702514648438	40.52658843994141	1372.271606445313	662.7808837890625	59.50746536254883	1417.4296875	643.6296997070313	85.03858184814453	1372.885009765625	739.1043090820313	461.5585632324219	1432.342529296875	796.8370971679688	1059.53466796875	1385.00634765625	756.8917846679688	534.7299194335938	1419.711547851563	748.780029296875	507.3112487792969	1287.322265625	845.0636596679688	58.08261871337891	1333.581176757813	860.2166748046875	68.17669677734375	1384.907348632813	823.0789184570313	50.47482299804688	1446.077758789063	680.5913696289063	1014.312683105469	1267.62451171875	694.4414672851563	186.6695709228516	1426.613891601563	664.4906616210938	193.9484405517578	1385.638549804688	695.0499267578125	270.7982482910156	1439.51611328125	660.6947631835938	273.6048278808594	1398.468017578125	765.6830444335938	662.7688598632813	1426.500854492188	701.8213500976563	665.7113037109375	1388.972412109375	766.925537109375	772.351806640625	1426.071899414063	708.07861328125	774.93798828125	1388.169555664063	796.2218627929688	435.2176208496094	1375.096923828125	
133	0.88	713.3101196289063	110.8899917602539	1037.8251953125	729.8004760742188	122.4397888183594	1118.93310546875	864.98974609375	1002.210083007813	1113.357055664063	789.1088256835938	920.425537109375	1039.104614257813	635.9529418945313	40.1246452331543	1086.025268554688	665.516357421875	61.44919204711914	1041.3388671875	645.6582641601563	86.83330535888672	1086.00927734375	733.6369018554688	455.3294372558594	1020.451721191406	777.3484497070313	1061.082397460938	1062.982055664063	753.6998901367188	533.1265258789063	1028.300415039063	726.1292114257813	504.0315856933594	1155.795776367188	851.7692260742188	57.25502014160156	1126.754150390625	863.9382934570313	62.55323028564453	1082.440063476563	821.4879760742188	47.74137878417969	1012.858215332031	681.152099609375	1023.042175292969	1190.737426757813	710.8466796875	183.2669525146484	1028.863159179688	668.6991577148438	186.7430572509766	1064.76611328125	704.7294311523438	262.5248718261719	1015.205688476563	663.54150390625	266.3230895996094	1049.729614257813	762.0606689453125	657.57666015625	1022.198486328125	699.6719360351563	668.4390869140625	1055.595947265625	774.4325561523438	766.8121948242188	1015.162292480469	714.841796875	777.46044921875	1047.493774414063	788.7273559570313	437.9601135253906	1074.432861328125	707.1574096679688	103.1972885131836	1422.390625	731.7132568359375	124.4106216430664	1341.396118164063	866.9722900390625	1004.208740234375	1338.19384765625	794.6784057617188	919.1369018554688	1410.203369140625	635.0685424804688	40.53118896484375	1372.265380859375	662.771484375	59.512939453125	1417.4248046875	643.6292724609375	85.04240417480469	1372.8974609375	739.0929565429688	461.5604553222656	1432.346923828125	796.8299560546875	1059.52587890625	1384.98046875	756.8812866210938	534.7290649414063	1419.722290039063	748.7887573242188	507.3141174316406	1287.315185546875	845.06396484375	58.09133529663086	1333.583862304688	860.2103881835938	68.17342376708984	1384.91015625	823.0707397460938	50.48792266845703	1446.072143554688	680.600341796875	1014.334167480469	1267.605224609375	694.4342651367188	186.6781311035156	1426.607299804688	664.5057373046875	193.943603515625	1385.642944335938	695.0418090820313	270.7930297851563	1439.512817382813	660.6929931640625	273.6135559082031	1398.464965820313	765.6741943359375	662.767333984375	1426.495727539063	701.8161010742188	665.7191772460938	1388.965087890625	766.9140014648438	772.3534545898438	1426.07373046875	708.0802612304688	774.9345092773438	1388.163818359375	796.2230834960938	435.2214965820313	1375.104125976563	
134	0.8866666666666667	713.3093872070313	110.9105758666992	1037.802490234375	729.7972412109375	122.4538650512695	1118.959350585938	865.0184936523438	1002.191162109375	1113.339477539063	789.1468505859375	920.421630859375	1039.098999023438	635.9541015625	40.12860870361328	1086.013549804688	665.5227661132813	61.45785140991211	1041.33544921875	645.6559448242188	86.84236907958984	1086.014526367188	733.6473388671875	455.3377380371094	1020.458557128906	777.408447265625	1061.055297851563	1062.944946289063	753.7005615234375	533.132080078125	1028.299194335938	726.1470947265625	504.0265808105469	1155.79296875	851.770263671875	57.26096343994141	1126.764770507813	863.9405517578125	62.54977416992188	1082.444213867188	821.4925537109375	47.73721694946289	1012.867736816406	681.1798095703125	1023.059448242188	1190.71142578125	710.8568115234375	183.2640533447266	1028.865112304688	668.7024536132813	186.7453308105469	1064.767578125	704.7355346679688	262.5279235839844	1015.206909179688	663.5484619140625	266.3253479003906	1049.7255859375	762.0618286132813	657.5759887695313	1022.186706542969	699.6903686523438	668.4463500976563	1055.603515625	774.4507446289063	766.79833984375	1015.152526855469	714.8609008789063	777.4674682617188	1047.486206054688	788.7314453125	437.9538879394531	1074.439453125	707.1632080078125	103.2052536010742	1422.387084960938	731.7169799804688	124.409538269043	1341.384765625	866.9857788085938	1004.202209472656	1338.203735351563	794.6847534179688	919.1397705078125	1410.196044921875	635.0673217773438	40.53213500976563	1372.269775390625	662.779296875	59.52755737304688	1417.435302734375	643.6321411132813	85.04138946533203	1372.886474609375	739.0963745117188	461.5600280761719	1432.341796875	796.8216552734375	1059.528686523438	1384.998046875	756.8739624023438	534.7290649414063	1419.714233398438	748.824951171875	507.3029174804688	1287.307983398438	845.0584106445313	58.08485794067383	1333.590942382813	860.2064208984375	68.18648529052734	1384.916870117188	823.0786743164063	50.48722076416016	1446.0693359375	680.6332397460938	1014.345458984375	1267.58349609375	694.4347534179688	186.6877288818359	1426.60888671875	664.5061645507813	193.949951171875	1385.628784179688	695.046630859375	270.8063049316406	1439.514038085938	660.6952514648438	273.6150817871094	1398.461669921875	765.6643676757813	662.7710571289063	1426.504760742188	701.8146362304688	665.7242431640625	1388.9521484375	766.91552734375	772.349365234375	1426.060668945313	708.0759887695313	774.94775390625	1388.1484375	796.2219848632813	435.2160339355469	1375.106689453125	
135	0.8933333333333334	713.3159790039063	110.8939056396484	1037.827880859375	729.7947387695313	122.4486389160156	1118.942626953125	865.0502319335938	1002.179443359375	1113.34521484375	789.1688842773438	920.4254760742188	1039.081665039063	635.9596557617188	40.13854217529297	1086.02294921875	665.5227661132813	61.45101547241211	1041.343383789063	645.6609497070313	86.84239196777344	1086.003662109375	733.6521606445313	455.3315734863281	1020.4609375	777.4436645507813	1061.027954101563	1062.9111328125	753.7171020507813	533.1283569335938	1028.302368164063	726.1475219726563	504.0419006347656	1155.797119140625	851.770751953125	57.26202774047852	1126.772216796875	863.9417114257813	62.52886962890625	1082.454467773438	821.4954833984375	47.74066925048828	1012.873596191406	681.1947021484375	1023.077575683594	1190.681762695313	710.8641357421875	183.2645721435547	1028.864379882813	668.7062377929688	186.7519683837891	1064.761352539063	704.7477416992188	262.5278930664063	1015.207153320313	663.556640625	266.3338012695313	1049.720092773438	762.0777587890625	657.5838012695313	1022.186584472656	699.698486328125	668.4490966796875	1055.586181640625	774.4607543945313	766.809814453125	1015.152893066406	714.8699951171875	777.4754638671875	1047.48828125	788.7322998046875	437.9444274902344	1074.441650390625	707.1577758789063	103.2058029174805	1422.385009765625	731.7288208007813	124.4067001342773	1341.3935546875	867.0018310546875	1004.182556152344	1338.205078125	794.6890869140625	919.1365356445313	1410.17578125	635.0764770507813	40.53520584106445	1372.265869140625	662.7734985351563	59.51872253417969	1417.428588867188	643.62939453125	85.04656219482422	1372.890258789063	739.093017578125	461.5684204101563	1432.330810546875	796.82666015625	1059.509643554688	1384.986083984375	756.8714599609375	534.7348022460938	1419.718872070313	748.8336181640625	507.3085632324219	1287.316040039063	845.073974609375	58.05300903320313	1333.610717773438	860.1971435546875	68.18312072753906	1384.915161132813	823.0790405273438	50.48942947387695	1446.06689453125	680.6400756835938	1014.363098144531	1267.564819335938	694.426025390625	186.6952056884766	1426.606079101563	664.5042724609375	193.9568023681641	1385.630493164063	695.0401000976563	270.8085632324219	1439.507080078125	660.6970825195313	273.6125183105469	1398.444458007813	765.6656494140625	662.7693481445313	1426.483520507813	701.8143310546875	665.7245483398438	1388.937866210938	766.906494140625	772.3569946289063	1426.05810546875	708.075927734375	774.9578857421875	1388.129150390625	796.2161865234375	435.2196655273438	1375.098999023438	
